<svg width="141" height="36" viewBox="0 0 141 36" fill="none" xmlns="http://www.w3.org/2000/svg">
<rect x="0.5" width="140" height="36" rx="18" fill="#2A2A2A"/>
<path d="M26.5287 14.8283L32.9374 13.2703C33.5284 13.1266 33.9277 13.8586 33.4871 14.2778L28.8109 18.7262C28.7251 18.8079 28.6656 18.9133 28.6402 19.029L27.3676 24.8186C27.2267 25.4595 26.3038 25.4323 26.2008 24.7842L25.2322 18.6867C25.2092 18.5419 25.1335 18.4107 25.0196 18.3184L20.0168 14.2634C19.5157 13.8573 19.9302 13.0559 20.5513 13.2301L26.2279 14.823C26.3261 14.8505 26.4297 14.8523 26.5287 14.8283Z" fill="#9EFA13"/>
<path d="M22.908 19.6474C22.9733 19.6969 23.0153 19.7713 23.0239 19.8528L23.4785 24.1507C23.5122 24.4697 23.0864 24.6082 22.926 24.3305L18.8669 17.2999C18.7049 17.0193 19.0453 16.719 19.3035 16.9147L22.908 19.6474Z" fill="#9EFA13"/>
<path d="M49.3694 21.5H48.3694V19.84H45.5594V19L48.0494 14.4H49.2494L46.6294 18.88H48.3694V17.37H49.3694V18.88H50.7294V19.84H49.3694V21.5ZM53.4558 21.62C52.4958 21.62 51.5658 21.17 51.1958 20.41L52.0158 19.79C52.2258 20.27 52.7558 20.67 53.4558 20.67C54.2258 20.67 54.8258 20.11 54.8258 19.27C54.8258 18.45 54.2258 17.89 53.4558 17.89L52.2958 18.39L51.5958 17.93L52.0058 14.4H55.3458V15.36H52.8458L52.5158 17.2C52.7958 17.05 53.1258 16.94 53.4558 16.94C54.7058 16.94 55.8258 17.88 55.8258 19.27C55.8258 20.69 54.7058 21.62 53.4558 21.62ZM57.9497 17.36C57.1397 17.36 56.4097 16.74 56.4097 15.82C56.4097 14.9 57.1397 14.28 57.9497 14.28C58.7597 14.28 59.4897 14.9 59.4897 15.82C59.4897 16.74 58.7597 17.36 57.9497 17.36ZM61.7597 21.62C60.9497 21.62 60.2197 21 60.2197 20.08C60.2197 19.16 60.9497 18.54 61.7597 18.54C62.5697 18.54 63.2997 19.16 63.2997 20.08C63.2997 21 62.5697 21.62 61.7597 21.62ZM61.7597 20.88C62.1797 20.88 62.5197 20.54 62.5197 20.08C62.5197 19.62 62.1797 19.28 61.7597 19.28C61.3397 19.28 60.9997 19.62 60.9997 20.08C60.9997 20.54 61.3397 20.88 61.7597 20.88ZM57.9497 16.62C58.3697 16.62 58.7097 16.28 58.7097 15.82C58.7097 15.36 58.3697 15.02 57.9497 15.02C57.5297 15.02 57.1897 15.36 57.1897 15.82C57.1897 16.28 57.5297 16.62 57.9497 16.62ZM58.2497 21.5H57.3097L61.5097 14.4H62.3997L58.2497 21.5ZM70.1365 21.68C67.9865 21.68 66.3165 20.17 66.3165 17.95C66.3165 15.73 67.9865 14.22 70.1365 14.22C70.9965 14.22 71.7465 14.45 72.3265 14.72V15.89L70.1465 15.18C68.5665 15.18 67.3565 16.34 67.3565 17.95C67.3565 19.56 68.6165 20.72 70.2565 20.72C70.9165 20.72 71.5565 20.49 72.0465 20.1L72.4365 21.04C71.7565 21.49 71.0365 21.68 70.1365 21.68ZM76.7566 21.68C74.6466 21.68 72.9766 20.17 72.9766 17.95C72.9766 15.73 74.6466 14.22 76.7566 14.22C78.8666 14.22 80.5366 15.73 80.5366 17.95C80.5366 20.17 78.8666 21.68 76.7566 21.68ZM76.7566 20.72C78.3166 20.72 79.4966 19.58 79.4966 17.95C79.4966 16.32 78.3166 15.18 76.7566 15.18C75.1966 15.18 74.0166 16.32 74.0166 17.95C74.0166 19.58 75.1966 20.72 76.7566 20.72ZM82.8151 21.5H81.8251V14.4H82.9851L85.2851 20.3L87.5851 14.4H88.7451V21.5H87.7551V16.58L85.8251 21.5H84.7451L82.8151 16.58V21.5ZM91.5072 21.5H90.4872V14.4H93.1672C94.5472 14.4 95.3272 15.27 95.3272 16.39C95.3272 17.51 94.5472 18.38 93.1672 18.38H91.5072V21.5ZM93.1672 15.36H91.5072V17.42H93.1672C93.8172 17.42 94.3072 17.1 94.3072 16.39C94.3072 15.68 93.8172 15.36 93.1672 15.36ZM100.625 21.5H96.4149V14.4H97.4349V20.54H100.625V21.5ZM105.7 21.5H101.61V14.4H105.65V15.36H102.63V17.42H105.5V18.38H102.63V20.54H105.7V21.5ZM109.449 21.5H108.429V15.36H106.379V14.4H111.499V15.36H109.449V21.5ZM116.608 21.5H112.518V14.4H116.558V15.36H113.538V17.42H116.408V18.38H113.538V20.54H116.608V21.5ZM120.327 21.5H118.007V14.4H120.327C122.497 14.4 124.067 15.84 124.067 17.95C124.067 20.06 122.497 21.5 120.327 21.5ZM120.327 15.36H119.027V20.54H120.327C121.897 20.54 123.027 19.52 123.027 17.95C123.027 16.38 121.897 15.36 120.327 15.36Z" fill="#9EFA13"/>
</svg>
